<mxfile host="app.diagrams.net" modified="2024-06-12T20:38:37.731Z" agent="Mozilla/5.0 (Windows NT 10.0; Win64; x64) AppleWebKit/537.36 (KHTML, like Gecko) Chrome/125.0.0.0 Safari/537.36" etag="txA1JIwixmPM3KSTXWhu" version="24.4.13" type="device" pages="2">
  <diagram id="R2lEEEUBdFMjLlhIrx00" name="Page-1">
    <mxGraphModel dx="1235" dy="726" grid="1" gridSize="10" guides="1" tooltips="1" connect="1" arrows="1" fold="1" page="1" pageScale="1.2" pageWidth="1169" pageHeight="827" math="0" shadow="0" extFonts="Permanent Marker^https://fonts.googleapis.com/css?family=Permanent+Marker">
      <root>
        <mxCell id="0" />
        <mxCell id="1" parent="0" />
        <mxCell id="RoXNrOe5Jz51w63c7MEY-2" value="Product" style="rounded=1;arcSize=10;whiteSpace=wrap;html=1;align=center;fillColor=#e1d5e7;strokeColor=#9673a6;" parent="1" vertex="1">
          <mxGeometry x="641" y="695" width="100" height="40" as="geometry" />
        </mxCell>
        <mxCell id="RoXNrOe5Jz51w63c7MEY-3" value="Supplier" style="rounded=1;arcSize=10;whiteSpace=wrap;html=1;align=center;fillColor=#f8cecc;strokeColor=#b85450;" parent="1" vertex="1">
          <mxGeometry x="211" y="695" width="100" height="40" as="geometry" />
        </mxCell>
        <mxCell id="RoXNrOe5Jz51w63c7MEY-4" value="Client" style="rounded=1;arcSize=10;whiteSpace=wrap;html=1;align=center;fillColor=#f8cecc;strokeColor=#b85450;" parent="1" vertex="1">
          <mxGeometry x="1061" y="695" width="100" height="40" as="geometry" />
        </mxCell>
        <mxCell id="RoXNrOe5Jz51w63c7MEY-6" style="edgeStyle=orthogonalEdgeStyle;rounded=0;orthogonalLoop=1;jettySize=auto;html=1;entryX=0;entryY=0.5;entryDx=0;entryDy=0;endArrow=none;endFill=0;" parent="1" source="RoXNrOe5Jz51w63c7MEY-5" target="RoXNrOe5Jz51w63c7MEY-2" edge="1">
          <mxGeometry relative="1" as="geometry" />
        </mxCell>
        <mxCell id="RoXNrOe5Jz51w63c7MEY-7" style="edgeStyle=orthogonalEdgeStyle;rounded=0;orthogonalLoop=1;jettySize=auto;html=1;entryX=1;entryY=0.5;entryDx=0;entryDy=0;endArrow=none;endFill=0;" parent="1" source="RoXNrOe5Jz51w63c7MEY-5" target="RoXNrOe5Jz51w63c7MEY-3" edge="1">
          <mxGeometry relative="1" as="geometry" />
        </mxCell>
        <mxCell id="RoXNrOe5Jz51w63c7MEY-5" value="Buy" style="shape=rhombus;perimeter=rhombusPerimeter;whiteSpace=wrap;html=1;align=center;fillColor=#d5e8d4;strokeColor=#82b366;" parent="1" vertex="1">
          <mxGeometry x="431" y="685" width="120" height="60" as="geometry" />
        </mxCell>
        <mxCell id="RoXNrOe5Jz51w63c7MEY-9" style="edgeStyle=orthogonalEdgeStyle;rounded=0;orthogonalLoop=1;jettySize=auto;html=1;endArrow=none;endFill=0;" parent="1" source="RoXNrOe5Jz51w63c7MEY-8" target="RoXNrOe5Jz51w63c7MEY-2" edge="1">
          <mxGeometry relative="1" as="geometry" />
        </mxCell>
        <mxCell id="RoXNrOe5Jz51w63c7MEY-10" style="edgeStyle=orthogonalEdgeStyle;rounded=0;orthogonalLoop=1;jettySize=auto;html=1;entryX=0;entryY=0.5;entryDx=0;entryDy=0;endArrow=none;endFill=0;" parent="1" source="RoXNrOe5Jz51w63c7MEY-8" target="RoXNrOe5Jz51w63c7MEY-4" edge="1">
          <mxGeometry relative="1" as="geometry" />
        </mxCell>
        <mxCell id="RoXNrOe5Jz51w63c7MEY-8" value="Sell (Sale)" style="shape=rhombus;perimeter=rhombusPerimeter;whiteSpace=wrap;html=1;align=center;fillColor=#d5e8d4;strokeColor=#82b366;" parent="1" vertex="1">
          <mxGeometry x="821" y="685" width="120" height="60" as="geometry" />
        </mxCell>
        <mxCell id="RoXNrOe5Jz51w63c7MEY-11" value="User" style="rounded=1;arcSize=10;whiteSpace=wrap;html=1;align=center;fillColor=#dae8fc;strokeColor=#6c8ebf;" parent="1" vertex="1">
          <mxGeometry x="636" y="80" width="140" height="60" as="geometry" />
        </mxCell>
        <mxCell id="RoXNrOe5Jz51w63c7MEY-12" value="Admin" style="rounded=1;arcSize=10;whiteSpace=wrap;html=1;align=center;" parent="1" vertex="1">
          <mxGeometry x="541" y="230" width="100" height="40" as="geometry" />
        </mxCell>
        <mxCell id="RoXNrOe5Jz51w63c7MEY-28" style="rounded=0;orthogonalLoop=1;jettySize=auto;html=1;entryX=0.5;entryY=1;entryDx=0;entryDy=0;endArrow=block;endFill=0;" parent="1" source="RoXNrOe5Jz51w63c7MEY-13" target="RoXNrOe5Jz51w63c7MEY-25" edge="1">
          <mxGeometry relative="1" as="geometry" />
        </mxCell>
        <mxCell id="RoXNrOe5Jz51w63c7MEY-13" value="BuyManager" style="rounded=1;arcSize=10;whiteSpace=wrap;html=1;align=center;" parent="1" vertex="1">
          <mxGeometry x="656" y="280" width="100" height="40" as="geometry" />
        </mxCell>
        <mxCell id="RoXNrOe5Jz51w63c7MEY-29" style="rounded=0;orthogonalLoop=1;jettySize=auto;html=1;entryX=0.927;entryY=0.626;entryDx=0;entryDy=0;endArrow=block;endFill=0;entryPerimeter=0;" parent="1" source="RoXNrOe5Jz51w63c7MEY-14" target="RoXNrOe5Jz51w63c7MEY-25" edge="1">
          <mxGeometry relative="1" as="geometry" />
        </mxCell>
        <mxCell id="RoXNrOe5Jz51w63c7MEY-14" value="SellManager" style="rounded=1;arcSize=10;whiteSpace=wrap;html=1;align=center;" parent="1" vertex="1">
          <mxGeometry x="766" y="230" width="100" height="40" as="geometry" />
        </mxCell>
        <mxCell id="RoXNrOe5Jz51w63c7MEY-19" value="&lt;u&gt;dni&lt;/u&gt;" style="ellipse;whiteSpace=wrap;html=1;align=center;fillColor=#dae8fc;strokeColor=#6c8ebf;" parent="1" vertex="1">
          <mxGeometry x="260" y="30" width="80" height="30" as="geometry" />
        </mxCell>
        <mxCell id="RoXNrOe5Jz51w63c7MEY-20" value="username" style="ellipse;whiteSpace=wrap;html=1;align=center;fillColor=#dae8fc;strokeColor=#6c8ebf;" parent="1" vertex="1">
          <mxGeometry x="361" y="20" width="90" height="30" as="geometry" />
        </mxCell>
        <mxCell id="RoXNrOe5Jz51w63c7MEY-21" value="name" style="ellipse;whiteSpace=wrap;html=1;align=center;fillColor=#dae8fc;strokeColor=#6c8ebf;" parent="1" vertex="1">
          <mxGeometry x="581" y="20" width="80" height="30" as="geometry" />
        </mxCell>
        <mxCell id="RoXNrOe5Jz51w63c7MEY-22" value="surname" style="ellipse;whiteSpace=wrap;html=1;align=center;fillColor=#dae8fc;strokeColor=#6c8ebf;" parent="1" vertex="1">
          <mxGeometry x="681" y="20" width="80" height="30" as="geometry" />
        </mxCell>
        <mxCell id="RoXNrOe5Jz51w63c7MEY-24" value="email" style="ellipse;whiteSpace=wrap;html=1;align=center;fillColor=#dae8fc;strokeColor=#6c8ebf;" parent="1" vertex="1">
          <mxGeometry x="761" y="20" width="80" height="30" as="geometry" />
        </mxCell>
        <mxCell id="RoXNrOe5Jz51w63c7MEY-26" style="edgeStyle=orthogonalEdgeStyle;rounded=0;orthogonalLoop=1;jettySize=auto;html=1;entryX=0.5;entryY=1;entryDx=0;entryDy=0;" parent="1" source="RoXNrOe5Jz51w63c7MEY-25" target="RoXNrOe5Jz51w63c7MEY-11" edge="1">
          <mxGeometry relative="1" as="geometry" />
        </mxCell>
        <mxCell id="RoXNrOe5Jz51w63c7MEY-25" value="" style="ellipse;whiteSpace=wrap;html=1;fillColor=#fff2cc;strokeColor=#d6b656;" parent="1" vertex="1">
          <mxGeometry x="691" y="200" width="30" height="30" as="geometry" />
        </mxCell>
        <mxCell id="RoXNrOe5Jz51w63c7MEY-27" style="rounded=0;orthogonalLoop=1;jettySize=auto;html=1;entryX=0.094;entryY=0.836;entryDx=0;entryDy=0;entryPerimeter=0;endArrow=block;endFill=0;exitX=1;exitY=0.5;exitDx=0;exitDy=0;" parent="1" source="RoXNrOe5Jz51w63c7MEY-12" target="RoXNrOe5Jz51w63c7MEY-25" edge="1">
          <mxGeometry relative="1" as="geometry">
            <mxPoint x="631" y="250.93702257681207" as="sourcePoint" />
          </mxGeometry>
        </mxCell>
        <mxCell id="RoXNrOe5Jz51w63c7MEY-37" style="edgeStyle=orthogonalEdgeStyle;rounded=0;orthogonalLoop=1;jettySize=auto;html=1;endArrow=none;endFill=0;" parent="1" source="RoXNrOe5Jz51w63c7MEY-33" target="RoXNrOe5Jz51w63c7MEY-34" edge="1">
          <mxGeometry relative="1" as="geometry" />
        </mxCell>
        <mxCell id="RoXNrOe5Jz51w63c7MEY-33" value="Notification" style="rounded=1;arcSize=10;whiteSpace=wrap;html=1;align=center;fillColor=#ffe6cc;strokeColor=#d79b00;" parent="1" vertex="1">
          <mxGeometry x="641" y="880" width="100" height="40" as="geometry" />
        </mxCell>
        <mxCell id="RoXNrOe5Jz51w63c7MEY-36" style="edgeStyle=orthogonalEdgeStyle;rounded=0;orthogonalLoop=1;jettySize=auto;html=1;entryX=0.5;entryY=1;entryDx=0;entryDy=0;endArrow=none;endFill=0;" parent="1" source="RoXNrOe5Jz51w63c7MEY-34" target="RoXNrOe5Jz51w63c7MEY-2" edge="1">
          <mxGeometry relative="1" as="geometry" />
        </mxCell>
        <mxCell id="RoXNrOe5Jz51w63c7MEY-34" value="Generate" style="shape=rhombus;perimeter=rhombusPerimeter;whiteSpace=wrap;html=1;align=center;" parent="1" vertex="1">
          <mxGeometry x="631" y="780" width="120" height="60" as="geometry" />
        </mxCell>
        <mxCell id="RoXNrOe5Jz51w63c7MEY-38" value="read" style="ellipse;whiteSpace=wrap;html=1;align=center;fillColor=#ffe6cc;strokeColor=#d79b00;" parent="1" vertex="1">
          <mxGeometry x="671" y="940" width="80" height="30" as="geometry" />
        </mxCell>
        <mxCell id="XdMGsmdt1H_Z6t9Y7cT0-2" style="rounded=0;orthogonalLoop=1;jettySize=auto;html=1;exitX=0;exitY=0.5;exitDx=0;exitDy=0;entryX=0;entryY=0;entryDx=0;entryDy=0;endArrow=none;endFill=0;" parent="1" source="XdMGsmdt1H_Z6t9Y7cT0-1" target="RoXNrOe5Jz51w63c7MEY-25" edge="1">
          <mxGeometry relative="1" as="geometry" />
        </mxCell>
        <mxCell id="XdMGsmdt1H_Z6t9Y7cT0-1" value="role" style="ellipse;whiteSpace=wrap;html=1;align=center;fillColor=#fff2cc;strokeColor=#d6b656;" parent="1" vertex="1">
          <mxGeometry x="566" y="180" width="80" height="30" as="geometry" />
        </mxCell>
        <mxCell id="XdMGsmdt1H_Z6t9Y7cT0-3" value="password" style="ellipse;whiteSpace=wrap;html=1;align=center;fillColor=#dae8fc;strokeColor=#6c8ebf;" parent="1" vertex="1">
          <mxGeometry x="461" y="10" width="90" height="30" as="geometry" />
        </mxCell>
        <mxCell id="XdMGsmdt1H_Z6t9Y7cT0-4" value="disabled" style="ellipse;whiteSpace=wrap;html=1;align=center;fillColor=#dae8fc;strokeColor=#6c8ebf;" parent="1" vertex="1">
          <mxGeometry x="880" y="20" width="80" height="30" as="geometry" />
        </mxCell>
        <mxCell id="XdMGsmdt1H_Z6t9Y7cT0-15" value="date" style="ellipse;whiteSpace=wrap;html=1;align=center;fillColor=#d5e8d4;strokeColor=#82b366;" parent="1" vertex="1">
          <mxGeometry x="371" y="740" width="80" height="30" as="geometry" />
        </mxCell>
        <mxCell id="XdMGsmdt1H_Z6t9Y7cT0-17" value="date" style="ellipse;whiteSpace=wrap;html=1;align=center;fillColor=#d5e8d4;strokeColor=#82b366;" parent="1" vertex="1">
          <mxGeometry x="761" y="750" width="80" height="30" as="geometry" />
        </mxCell>
        <mxCell id="XdMGsmdt1H_Z6t9Y7cT0-19" value="amount" style="ellipse;whiteSpace=wrap;html=1;align=center;fillColor=#d5e8d4;strokeColor=#82b366;" parent="1" vertex="1">
          <mxGeometry x="371" y="790" width="80" height="30" as="geometry" />
        </mxCell>
        <mxCell id="XdMGsmdt1H_Z6t9Y7cT0-20" value="amount" style="ellipse;whiteSpace=wrap;html=1;align=center;fillColor=#d5e8d4;strokeColor=#82b366;" parent="1" vertex="1">
          <mxGeometry x="791" y="790" width="80" height="30" as="geometry" />
        </mxCell>
        <mxCell id="XdMGsmdt1H_Z6t9Y7cT0-22" value="name" style="ellipse;whiteSpace=wrap;html=1;align=center;fillColor=#e1d5e7;strokeColor=#9673a6;" parent="1" vertex="1">
          <mxGeometry x="511" y="620" width="80" height="30" as="geometry" />
        </mxCell>
        <mxCell id="XdMGsmdt1H_Z6t9Y7cT0-23" value="&lt;u&gt;id&lt;/u&gt;" style="ellipse;whiteSpace=wrap;html=1;align=center;fillColor=#e1d5e7;strokeColor=#9673a6;" parent="1" vertex="1">
          <mxGeometry x="511" y="660" width="80" height="30" as="geometry" />
        </mxCell>
        <mxCell id="XdMGsmdt1H_Z6t9Y7cT0-24" value="price" style="ellipse;whiteSpace=wrap;html=1;align=center;fillColor=#e1d5e7;strokeColor=#9673a6;" parent="1" vertex="1">
          <mxGeometry x="601" y="660" width="80" height="30" as="geometry" />
        </mxCell>
        <mxCell id="XdMGsmdt1H_Z6t9Y7cT0-25" value="cost" style="ellipse;whiteSpace=wrap;html=1;align=center;fillColor=#e1d5e7;strokeColor=#9673a6;" parent="1" vertex="1">
          <mxGeometry x="791" y="620" width="80" height="30" as="geometry" />
        </mxCell>
        <mxCell id="XdMGsmdt1H_Z6t9Y7cT0-26" value="unit_limit" style="ellipse;whiteSpace=wrap;html=1;align=center;fillColor=#e1d5e7;strokeColor=#9673a6;" parent="1" vertex="1">
          <mxGeometry x="791" y="655" width="80" height="30" as="geometry" />
        </mxCell>
        <mxCell id="XdMGsmdt1H_Z6t9Y7cT0-31" value="disabled" style="ellipse;whiteSpace=wrap;html=1;align=center;fillColor=#d5e8d4;strokeColor=#82b366;" parent="1" vertex="1">
          <mxGeometry x="531" y="790" width="80" height="30" as="geometry" />
        </mxCell>
        <mxCell id="XdMGsmdt1H_Z6t9Y7cT0-32" value="disabled" style="ellipse;whiteSpace=wrap;html=1;align=center;fillColor=#e1d5e7;strokeColor=#9673a6;" parent="1" vertex="1">
          <mxGeometry x="701" y="620" width="80" height="30" as="geometry" />
        </mxCell>
        <mxCell id="XdMGsmdt1H_Z6t9Y7cT0-33" value="disabled" style="ellipse;whiteSpace=wrap;html=1;align=center;fillColor=#d5e8d4;strokeColor=#82b366;" parent="1" vertex="1">
          <mxGeometry x="901" y="790" width="80" height="30" as="geometry" />
        </mxCell>
        <mxCell id="XdMGsmdt1H_Z6t9Y7cT0-34" value="company" style="ellipse;whiteSpace=wrap;html=1;align=center;fillColor=#f8cecc;strokeColor=#b85450;" parent="1" vertex="1">
          <mxGeometry x="1241" y="730" width="90" height="30" as="geometry" />
        </mxCell>
        <mxCell id="XdMGsmdt1H_Z6t9Y7cT0-35" value="name" style="ellipse;whiteSpace=wrap;html=1;align=center;fillColor=#f8cecc;strokeColor=#b85450;" parent="1" vertex="1">
          <mxGeometry x="1161" y="620" width="80" height="30" as="geometry" />
        </mxCell>
        <mxCell id="XdMGsmdt1H_Z6t9Y7cT0-36" value="surname" style="ellipse;whiteSpace=wrap;html=1;align=center;fillColor=#f8cecc;strokeColor=#b85450;" parent="1" vertex="1">
          <mxGeometry x="1201" y="655" width="80" height="30" as="geometry" />
        </mxCell>
        <mxCell id="XdMGsmdt1H_Z6t9Y7cT0-38" value="disabled" style="ellipse;whiteSpace=wrap;html=1;align=center;fillColor=#f8cecc;strokeColor=#b85450;" parent="1" vertex="1">
          <mxGeometry x="1226" y="765" width="80" height="30" as="geometry" />
        </mxCell>
        <mxCell id="XdMGsmdt1H_Z6t9Y7cT0-39" value="message" style="ellipse;whiteSpace=wrap;html=1;align=center;fillColor=#ffe6cc;strokeColor=#d79b00;" parent="1" vertex="1">
          <mxGeometry x="581" y="940" width="80" height="30" as="geometry" />
        </mxCell>
        <mxCell id="XdMGsmdt1H_Z6t9Y7cT0-40" value="&lt;u&gt;id&lt;/u&gt;" style="ellipse;whiteSpace=wrap;html=1;align=center;fillColor=#ffe6cc;strokeColor=#d79b00;" parent="1" vertex="1">
          <mxGeometry x="511" y="900" width="80" height="30" as="geometry" />
        </mxCell>
        <mxCell id="XdMGsmdt1H_Z6t9Y7cT0-41" value="date" style="ellipse;whiteSpace=wrap;html=1;align=center;fillColor=#ffe6cc;strokeColor=#d79b00;" parent="1" vertex="1">
          <mxGeometry x="761" y="910" width="80" height="30" as="geometry" />
        </mxCell>
        <mxCell id="UGzfHtjnT6-pvEjcTPe5-1" value="stock" style="ellipse;whiteSpace=wrap;html=1;align=center;fillColor=#e1d5e7;strokeColor=#9673a6;" parent="1" vertex="1">
          <mxGeometry x="701" y="655" width="80" height="30" as="geometry" />
        </mxCell>
        <mxCell id="UGzfHtjnT6-pvEjcTPe5-2" value="description" style="ellipse;whiteSpace=wrap;html=1;align=center;fillColor=#e1d5e7;strokeColor=#9673a6;" parent="1" vertex="1">
          <mxGeometry x="601" y="620" width="80" height="30" as="geometry" />
        </mxCell>
        <mxCell id="UGzfHtjnT6-pvEjcTPe5-5" style="rounded=0;orthogonalLoop=1;jettySize=auto;html=1;entryX=0.5;entryY=0;entryDx=0;entryDy=0;endArrow=none;endFill=0;" parent="1" source="UGzfHtjnT6-pvEjcTPe5-3" target="UGzfHtjnT6-pvEjcTPe5-4" edge="1">
          <mxGeometry relative="1" as="geometry" />
        </mxCell>
        <mxCell id="UGzfHtjnT6-pvEjcTPe5-3" value="UnitMeasure" style="rounded=1;arcSize=10;whiteSpace=wrap;html=1;align=center;fillColor=#CDFFA1;strokeColor=#81A165;" parent="1" vertex="1">
          <mxGeometry x="641" y="480" width="100" height="40" as="geometry" />
        </mxCell>
        <mxCell id="UGzfHtjnT6-pvEjcTPe5-6" style="rounded=0;orthogonalLoop=1;jettySize=auto;html=1;entryX=0.5;entryY=0;entryDx=0;entryDy=0;endArrow=none;endFill=0;" parent="1" source="UGzfHtjnT6-pvEjcTPe5-4" target="RoXNrOe5Jz51w63c7MEY-2" edge="1">
          <mxGeometry relative="1" as="geometry" />
        </mxCell>
        <mxCell id="UGzfHtjnT6-pvEjcTPe5-4" value="Quantifies" style="rhombus;whiteSpace=wrap;html=1;" parent="1" vertex="1">
          <mxGeometry x="641" y="560" width="100" height="60" as="geometry" />
        </mxCell>
        <mxCell id="UGzfHtjnT6-pvEjcTPe5-7" value="&lt;u&gt;id&lt;/u&gt;" style="ellipse;whiteSpace=wrap;html=1;align=center;fillColor=#CDFFA1;strokeColor=#9673a6;" parent="1" vertex="1">
          <mxGeometry x="561" y="420" width="80" height="30" as="geometry" />
        </mxCell>
        <mxCell id="UGzfHtjnT6-pvEjcTPe5-8" value="abbreviation" style="ellipse;whiteSpace=wrap;html=1;align=center;fillColor=#CDFFA1;strokeColor=#9673a6;" parent="1" vertex="1">
          <mxGeometry x="651" y="420" width="80" height="30" as="geometry" />
        </mxCell>
        <mxCell id="UGzfHtjnT6-pvEjcTPe5-9" value="full_name" style="ellipse;whiteSpace=wrap;html=1;align=center;fillColor=#CDFFA1;strokeColor=#9673a6;" parent="1" vertex="1">
          <mxGeometry x="741" y="420" width="80" height="30" as="geometry" />
        </mxCell>
        <mxCell id="UGzfHtjnT6-pvEjcTPe5-10" value="&lt;u&gt;id&lt;/u&gt;" style="ellipse;whiteSpace=wrap;html=1;align=center;fillColor=#f8cecc;strokeColor=#b85450;" parent="1" vertex="1">
          <mxGeometry x="1061" y="650" width="80" height="30" as="geometry" />
        </mxCell>
        <mxCell id="UGzfHtjnT6-pvEjcTPe5-12" value="price" style="ellipse;whiteSpace=wrap;html=1;align=center;fillColor=#d5e8d4;strokeColor=#82b366;" parent="1" vertex="1">
          <mxGeometry x="521" y="745" width="80" height="30" as="geometry" />
        </mxCell>
        <mxCell id="UGzfHtjnT6-pvEjcTPe5-13" value="price" style="ellipse;whiteSpace=wrap;html=1;align=center;fillColor=#d5e8d4;strokeColor=#82b366;" parent="1" vertex="1">
          <mxGeometry x="911" y="750" width="80" height="30" as="geometry" />
        </mxCell>
        <mxCell id="UGzfHtjnT6-pvEjcTPe5-14" value="phone" style="ellipse;whiteSpace=wrap;html=1;align=center;fillColor=#f8cecc;strokeColor=#b85450;" parent="1" vertex="1">
          <mxGeometry x="1226" y="690" width="80" height="30" as="geometry" />
        </mxCell>
        <mxCell id="UGzfHtjnT6-pvEjcTPe5-15" value="company" style="ellipse;whiteSpace=wrap;html=1;align=center;fillColor=#f8cecc;strokeColor=#b85450;" parent="1" vertex="1">
          <mxGeometry x="91" y="780" width="90" height="30" as="geometry" />
        </mxCell>
        <mxCell id="UGzfHtjnT6-pvEjcTPe5-16" value="name" style="ellipse;whiteSpace=wrap;html=1;align=center;fillColor=#f8cecc;strokeColor=#b85450;" parent="1" vertex="1">
          <mxGeometry x="81" y="665" width="80" height="30" as="geometry" />
        </mxCell>
        <mxCell id="UGzfHtjnT6-pvEjcTPe5-17" value="surname" style="ellipse;whiteSpace=wrap;html=1;align=center;fillColor=#f8cecc;strokeColor=#b85450;" parent="1" vertex="1">
          <mxGeometry x="71" y="705" width="80" height="30" as="geometry" />
        </mxCell>
        <mxCell id="UGzfHtjnT6-pvEjcTPe5-18" value="disabled" style="ellipse;whiteSpace=wrap;html=1;align=center;fillColor=#f8cecc;strokeColor=#b85450;" parent="1" vertex="1">
          <mxGeometry x="136" y="820" width="80" height="30" as="geometry" />
        </mxCell>
        <mxCell id="UGzfHtjnT6-pvEjcTPe5-19" value="&lt;u&gt;id&lt;/u&gt;" style="ellipse;whiteSpace=wrap;html=1;align=center;fillColor=#f8cecc;strokeColor=#b85450;" parent="1" vertex="1">
          <mxGeometry x="131" y="625" width="80" height="30" as="geometry" />
        </mxCell>
        <mxCell id="UGzfHtjnT6-pvEjcTPe5-20" value="phone" style="ellipse;whiteSpace=wrap;html=1;align=center;fillColor=#f8cecc;strokeColor=#b85450;" parent="1" vertex="1">
          <mxGeometry x="71" y="740" width="80" height="30" as="geometry" />
        </mxCell>
      </root>
    </mxGraphModel>
  </diagram>
  <diagram id="ybSFuwS6F8-GgSHQe5qZ" name="Página-2">
    <mxGraphModel dx="1235" dy="726" grid="1" gridSize="10" guides="1" tooltips="1" connect="1" arrows="1" fold="1" page="1" pageScale="1" pageWidth="1169" pageHeight="827" math="0" shadow="0">
      <root>
        <mxCell id="0" />
        <mxCell id="1" parent="0" />
        <mxCell id="LRcjUjVWaLaLbdImSS1h-29" style="edgeStyle=orthogonalEdgeStyle;rounded=0;orthogonalLoop=1;jettySize=auto;html=1;endArrow=none;endFill=0;" parent="1" source="LRcjUjVWaLaLbdImSS1h-27" target="mi0X13jAqtkiXMaioM2p-9" edge="1">
          <mxGeometry relative="1" as="geometry" />
        </mxCell>
        <mxCell id="LRcjUjVWaLaLbdImSS1h-27" value="" style="shape=rhombus;perimeter=rhombusPerimeter;whiteSpace=wrap;html=1;align=center;" parent="1" vertex="1">
          <mxGeometry x="866.25" y="240" width="127.5" height="70" as="geometry" />
        </mxCell>
        <mxCell id="iY3inTdOyOO_m0dRyVDO-7" style="edgeStyle=orthogonalEdgeStyle;rounded=0;orthogonalLoop=1;jettySize=auto;html=1;entryX=1;entryY=0.5;entryDx=0;entryDy=0;exitX=0.5;exitY=1;exitDx=0;exitDy=0;endArrow=none;endFill=0;" parent="1" source="mi0X13jAqtkiXMaioM2p-9" target="iY3inTdOyOO_m0dRyVDO-5" edge="1">
          <mxGeometry relative="1" as="geometry" />
        </mxCell>
        <mxCell id="Zt6aSx7S08KVgvww_Lt0-18" style="edgeStyle=orthogonalEdgeStyle;rounded=0;orthogonalLoop=1;jettySize=auto;html=1;entryX=0;entryY=0.5;entryDx=0;entryDy=0;endArrow=none;endFill=0;" edge="1" parent="1" source="mi0X13jAqtkiXMaioM2p-9" target="b_wDz366ziYPap3Nds_6-18">
          <mxGeometry relative="1" as="geometry" />
        </mxCell>
        <mxCell id="mi0X13jAqtkiXMaioM2p-9" value="" style="rounded=1;arcSize=10;whiteSpace=wrap;html=1;align=center;fillColor=#e1d5e7;strokeColor=#9673a6;" parent="1" vertex="1">
          <mxGeometry x="870" y="440" width="120" height="50" as="geometry" />
        </mxCell>
        <mxCell id="LRcjUjVWaLaLbdImSS1h-15" style="edgeStyle=orthogonalEdgeStyle;rounded=0;orthogonalLoop=1;jettySize=auto;html=1;endArrow=none;endFill=0;" parent="1" source="lMafhHqbi1va3fqMS8ZI-1" target="LRcjUjVWaLaLbdImSS1h-6" edge="1">
          <mxGeometry relative="1" as="geometry" />
        </mxCell>
        <mxCell id="LRcjUjVWaLaLbdImSS1h-21" style="edgeStyle=orthogonalEdgeStyle;rounded=0;orthogonalLoop=1;jettySize=auto;html=1;endArrow=none;endFill=0;" parent="1" source="lMafhHqbi1va3fqMS8ZI-1" target="LRcjUjVWaLaLbdImSS1h-20" edge="1">
          <mxGeometry relative="1" as="geometry" />
        </mxCell>
        <mxCell id="Zt6aSx7S08KVgvww_Lt0-1" style="edgeStyle=orthogonalEdgeStyle;rounded=0;orthogonalLoop=1;jettySize=auto;html=1;endArrow=none;endFill=0;" edge="1" parent="1" source="lMafhHqbi1va3fqMS8ZI-1">
          <mxGeometry relative="1" as="geometry">
            <mxPoint x="585" y="20" as="targetPoint" />
            <Array as="points">
              <mxPoint x="585" y="105" />
            </Array>
          </mxGeometry>
        </mxCell>
        <mxCell id="lMafhHqbi1va3fqMS8ZI-1" value="User" style="rounded=1;arcSize=10;whiteSpace=wrap;html=1;align=center;fillColor=#dae8fc;strokeColor=#6c8ebf;" parent="1" vertex="1">
          <mxGeometry x="515" y="130" width="140" height="60" as="geometry" />
        </mxCell>
        <mxCell id="LRcjUjVWaLaLbdImSS1h-9" style="edgeStyle=orthogonalEdgeStyle;rounded=0;orthogonalLoop=1;jettySize=auto;html=1;endArrow=none;endFill=0;" parent="1" source="mi0X13jAqtkiXMaioM2p-1" target="LRcjUjVWaLaLbdImSS1h-2" edge="1">
          <mxGeometry relative="1" as="geometry" />
        </mxCell>
        <mxCell id="LRcjUjVWaLaLbdImSS1h-17" style="edgeStyle=orthogonalEdgeStyle;rounded=0;orthogonalLoop=1;jettySize=auto;html=1;endArrow=none;endFill=0;" parent="1" source="mi0X13jAqtkiXMaioM2p-1" target="LRcjUjVWaLaLbdImSS1h-5" edge="1">
          <mxGeometry relative="1" as="geometry" />
        </mxCell>
        <mxCell id="mi0X13jAqtkiXMaioM2p-1" value="Buy" style="rounded=1;arcSize=10;whiteSpace=wrap;html=1;align=center;fillColor=#e1d5e7;strokeColor=#9673a6;" parent="1" vertex="1">
          <mxGeometry x="240" y="140" width="100" height="40" as="geometry" />
        </mxCell>
        <mxCell id="LRcjUjVWaLaLbdImSS1h-11" style="edgeStyle=orthogonalEdgeStyle;rounded=0;orthogonalLoop=1;jettySize=auto;html=1;endArrow=none;endFill=0;" parent="1" source="mi0X13jAqtkiXMaioM2p-2" target="LRcjUjVWaLaLbdImSS1h-3" edge="1">
          <mxGeometry relative="1" as="geometry" />
        </mxCell>
        <mxCell id="Zt6aSx7S08KVgvww_Lt0-34" style="edgeStyle=orthogonalEdgeStyle;rounded=0;orthogonalLoop=1;jettySize=auto;html=1;endArrow=none;endFill=0;exitX=1;exitY=0.5;exitDx=0;exitDy=0;" edge="1" parent="1" source="mi0X13jAqtkiXMaioM2p-2">
          <mxGeometry relative="1" as="geometry">
            <mxPoint x="160" y="300" as="sourcePoint" />
            <mxPoint x="210" y="300" as="targetPoint" />
          </mxGeometry>
        </mxCell>
        <mxCell id="mi0X13jAqtkiXMaioM2p-2" value="Supplier" style="rounded=1;arcSize=10;whiteSpace=wrap;html=1;align=center;fillColor=#b0e3e6;strokeColor=#0e8088;" parent="1" vertex="1">
          <mxGeometry x="50" y="280" width="100" height="40" as="geometry" />
        </mxCell>
        <mxCell id="LRcjUjVWaLaLbdImSS1h-13" style="edgeStyle=orthogonalEdgeStyle;rounded=0;orthogonalLoop=1;jettySize=auto;html=1;endArrow=none;endFill=0;" parent="1" source="mi0X13jAqtkiXMaioM2p-3" target="LRcjUjVWaLaLbdImSS1h-4" edge="1">
          <mxGeometry relative="1" as="geometry" />
        </mxCell>
        <mxCell id="iY3inTdOyOO_m0dRyVDO-8" style="edgeStyle=orthogonalEdgeStyle;rounded=0;orthogonalLoop=1;jettySize=auto;html=1;entryX=0;entryY=0.5;entryDx=0;entryDy=0;endArrow=none;endFill=0;" parent="1" source="mi0X13jAqtkiXMaioM2p-3" target="iY3inTdOyOO_m0dRyVDO-5" edge="1">
          <mxGeometry relative="1" as="geometry">
            <Array as="points">
              <mxPoint x="100" y="555" />
            </Array>
          </mxGeometry>
        </mxCell>
        <mxCell id="8btiDHb9CknXPu4yg05l-5" style="edgeStyle=orthogonalEdgeStyle;rounded=0;orthogonalLoop=1;jettySize=auto;html=1;entryX=0;entryY=0.5;entryDx=0;entryDy=0;endArrow=none;endFill=0;" parent="1" source="mi0X13jAqtkiXMaioM2p-3" target="8btiDHb9CknXPu4yg05l-1" edge="1">
          <mxGeometry relative="1" as="geometry">
            <Array as="points">
              <mxPoint x="90" y="590" />
              <mxPoint x="220" y="590" />
              <mxPoint x="220" y="680" />
              <mxPoint x="390" y="680" />
            </Array>
          </mxGeometry>
        </mxCell>
        <mxCell id="Zt6aSx7S08KVgvww_Lt0-37" style="edgeStyle=orthogonalEdgeStyle;rounded=0;orthogonalLoop=1;jettySize=auto;html=1;endArrow=none;endFill=0;" edge="1" parent="1" source="mi0X13jAqtkiXMaioM2p-3">
          <mxGeometry relative="1" as="geometry">
            <mxPoint x="30" y="520" as="targetPoint" />
            <Array as="points">
              <mxPoint x="20" y="520" />
              <mxPoint x="20" y="520" />
            </Array>
          </mxGeometry>
        </mxCell>
        <mxCell id="mi0X13jAqtkiXMaioM2p-3" value="Product" style="rounded=1;arcSize=10;whiteSpace=wrap;html=1;align=center;fillColor=#fad7ac;strokeColor=#b46504;" parent="1" vertex="1">
          <mxGeometry x="50" y="500" width="100" height="40" as="geometry" />
        </mxCell>
        <mxCell id="mi0X13jAqtkiXMaioM2p-4" value="Notification" style="rounded=1;arcSize=10;whiteSpace=wrap;html=1;align=center;fillColor=#b1ddf0;strokeColor=#10739e;" parent="1" vertex="1">
          <mxGeometry x="450" y="500" width="100" height="40" as="geometry" />
        </mxCell>
        <mxCell id="LRcjUjVWaLaLbdImSS1h-24" style="edgeStyle=orthogonalEdgeStyle;rounded=0;orthogonalLoop=1;jettySize=auto;html=1;endArrow=none;endFill=0;" parent="1" source="mi0X13jAqtkiXMaioM2p-5" target="LRcjUjVWaLaLbdImSS1h-23" edge="1">
          <mxGeometry relative="1" as="geometry" />
        </mxCell>
        <mxCell id="LRcjUjVWaLaLbdImSS1h-28" style="edgeStyle=orthogonalEdgeStyle;rounded=0;orthogonalLoop=1;jettySize=auto;html=1;endArrow=none;endFill=0;" parent="1" source="mi0X13jAqtkiXMaioM2p-5" target="LRcjUjVWaLaLbdImSS1h-27" edge="1">
          <mxGeometry relative="1" as="geometry" />
        </mxCell>
        <mxCell id="Zt6aSx7S08KVgvww_Lt0-12" style="edgeStyle=orthogonalEdgeStyle;rounded=0;orthogonalLoop=1;jettySize=auto;html=1;endArrow=none;endFill=0;" edge="1" parent="1" source="mi0X13jAqtkiXMaioM2p-5">
          <mxGeometry relative="1" as="geometry">
            <mxPoint x="930" y="80" as="targetPoint" />
          </mxGeometry>
        </mxCell>
        <mxCell id="mi0X13jAqtkiXMaioM2p-5" value="Invoice" style="rounded=1;arcSize=10;whiteSpace=wrap;html=1;align=center;fillColor=#d5e8d4;strokeColor=#82b366;" parent="1" vertex="1">
          <mxGeometry x="880" y="140" width="100" height="40" as="geometry" />
        </mxCell>
        <mxCell id="Zt6aSx7S08KVgvww_Lt0-15" style="edgeStyle=orthogonalEdgeStyle;rounded=0;orthogonalLoop=1;jettySize=auto;html=1;endArrow=none;endFill=0;" edge="1" parent="1" source="mi0X13jAqtkiXMaioM2p-6">
          <mxGeometry relative="1" as="geometry">
            <mxPoint x="1080" y="390" as="targetPoint" />
          </mxGeometry>
        </mxCell>
        <mxCell id="mi0X13jAqtkiXMaioM2p-6" value="Client" style="rounded=1;arcSize=10;whiteSpace=wrap;html=1;align=center;fillColor=#f8cecc;strokeColor=#b85450;" parent="1" vertex="1">
          <mxGeometry x="1030" y="280" width="100" height="40" as="geometry" />
        </mxCell>
        <mxCell id="mi0X13jAqtkiXMaioM2p-8" value="InvoiceLine" style="rounded=1;arcSize=10;whiteSpace=wrap;html=1;align=center;fillColor=#e1d5e7;strokeColor=#584361;" parent="1" vertex="1">
          <mxGeometry x="880" y="445" width="100" height="40" as="geometry" />
        </mxCell>
        <mxCell id="LRcjUjVWaLaLbdImSS1h-7" style="edgeStyle=orthogonalEdgeStyle;rounded=0;orthogonalLoop=1;jettySize=auto;html=1;endArrow=none;endFill=0;" parent="1" source="LRcjUjVWaLaLbdImSS1h-1" target="lMafhHqbi1va3fqMS8ZI-1" edge="1">
          <mxGeometry relative="1" as="geometry" />
        </mxCell>
        <mxCell id="LRcjUjVWaLaLbdImSS1h-8" style="edgeStyle=orthogonalEdgeStyle;rounded=0;orthogonalLoop=1;jettySize=auto;html=1;endArrow=none;endFill=0;fillColor=#e1d5e7;strokeColor=#9673a6;" parent="1" source="LRcjUjVWaLaLbdImSS1h-1" target="mi0X13jAqtkiXMaioM2p-1" edge="1">
          <mxGeometry relative="1" as="geometry" />
        </mxCell>
        <mxCell id="Zt6aSx7S08KVgvww_Lt0-10" style="edgeStyle=orthogonalEdgeStyle;rounded=0;orthogonalLoop=1;jettySize=auto;html=1;entryX=0.5;entryY=1;entryDx=0;entryDy=0;endArrow=none;endFill=0;" edge="1" parent="1" source="LRcjUjVWaLaLbdImSS1h-1" target="b_wDz366ziYPap3Nds_6-4">
          <mxGeometry relative="1" as="geometry" />
        </mxCell>
        <mxCell id="LRcjUjVWaLaLbdImSS1h-1" value="Makes" style="shape=rhombus;perimeter=rhombusPerimeter;whiteSpace=wrap;html=1;align=center;fillColor=#fad7ac;strokeColor=#b46504;" parent="1" vertex="1">
          <mxGeometry x="370" y="135" width="110" height="50" as="geometry" />
        </mxCell>
        <mxCell id="LRcjUjVWaLaLbdImSS1h-10" style="edgeStyle=orthogonalEdgeStyle;rounded=0;orthogonalLoop=1;jettySize=auto;html=1;endArrow=none;endFill=0;" parent="1" source="LRcjUjVWaLaLbdImSS1h-2" target="mi0X13jAqtkiXMaioM2p-2" edge="1">
          <mxGeometry relative="1" as="geometry" />
        </mxCell>
        <mxCell id="LRcjUjVWaLaLbdImSS1h-2" value="Have" style="shape=rhombus;perimeter=rhombusPerimeter;whiteSpace=wrap;html=1;align=center;" parent="1" vertex="1">
          <mxGeometry x="45" y="135" width="110" height="50" as="geometry" />
        </mxCell>
        <mxCell id="LRcjUjVWaLaLbdImSS1h-12" style="edgeStyle=orthogonalEdgeStyle;rounded=0;orthogonalLoop=1;jettySize=auto;html=1;endArrow=none;endFill=0;" parent="1" source="LRcjUjVWaLaLbdImSS1h-3" target="mi0X13jAqtkiXMaioM2p-3" edge="1">
          <mxGeometry relative="1" as="geometry" />
        </mxCell>
        <mxCell id="LRcjUjVWaLaLbdImSS1h-3" value="Provide" style="shape=rhombus;perimeter=rhombusPerimeter;whiteSpace=wrap;html=1;align=center;" parent="1" vertex="1">
          <mxGeometry x="45" y="388.5" width="110" height="50" as="geometry" />
        </mxCell>
        <mxCell id="LRcjUjVWaLaLbdImSS1h-14" style="edgeStyle=orthogonalEdgeStyle;rounded=0;orthogonalLoop=1;jettySize=auto;html=1;endArrow=none;endFill=0;" parent="1" source="LRcjUjVWaLaLbdImSS1h-4" target="mi0X13jAqtkiXMaioM2p-4" edge="1">
          <mxGeometry relative="1" as="geometry" />
        </mxCell>
        <mxCell id="Zt6aSx7S08KVgvww_Lt0-25" style="edgeStyle=orthogonalEdgeStyle;rounded=0;orthogonalLoop=1;jettySize=auto;html=1;endArrow=none;endFill=0;" edge="1" parent="1" source="LRcjUjVWaLaLbdImSS1h-4">
          <mxGeometry relative="1" as="geometry">
            <mxPoint x="304.9999999999999" y="470" as="targetPoint" />
          </mxGeometry>
        </mxCell>
        <mxCell id="LRcjUjVWaLaLbdImSS1h-4" value="Generate" style="shape=rhombus;perimeter=rhombusPerimeter;whiteSpace=wrap;html=1;align=center;fillColor=#bac8d3;strokeColor=#23445d;" parent="1" vertex="1">
          <mxGeometry x="250" y="495" width="110" height="50" as="geometry" />
        </mxCell>
        <mxCell id="LRcjUjVWaLaLbdImSS1h-19" style="rounded=0;orthogonalLoop=1;jettySize=auto;html=1;entryX=0.986;entryY=0.027;entryDx=0;entryDy=0;endArrow=none;endFill=0;exitX=0.5;exitY=1;exitDx=0;exitDy=0;entryPerimeter=0;" parent="1" source="LRcjUjVWaLaLbdImSS1h-5" target="mi0X13jAqtkiXMaioM2p-3" edge="1">
          <mxGeometry relative="1" as="geometry" />
        </mxCell>
        <mxCell id="Zt6aSx7S08KVgvww_Lt0-32" style="edgeStyle=orthogonalEdgeStyle;rounded=0;orthogonalLoop=1;jettySize=auto;html=1;endArrow=none;endFill=0;" edge="1" parent="1" source="LRcjUjVWaLaLbdImSS1h-5">
          <mxGeometry relative="1" as="geometry">
            <mxPoint x="390" y="325" as="targetPoint" />
            <Array as="points">
              <mxPoint x="390" y="350" />
            </Array>
          </mxGeometry>
        </mxCell>
        <mxCell id="LRcjUjVWaLaLbdImSS1h-5" value="Contain" style="shape=rhombus;perimeter=rhombusPerimeter;whiteSpace=wrap;html=1;align=center;fillColor=#fad9d5;strokeColor=#ae4132;" parent="1" vertex="1">
          <mxGeometry x="235" y="325" width="110" height="50" as="geometry" />
        </mxCell>
        <mxCell id="LRcjUjVWaLaLbdImSS1h-16" style="edgeStyle=orthogonalEdgeStyle;rounded=0;orthogonalLoop=1;jettySize=auto;html=1;endArrow=none;endFill=0;" parent="1" source="LRcjUjVWaLaLbdImSS1h-6" target="mi0X13jAqtkiXMaioM2p-4" edge="1">
          <mxGeometry relative="1" as="geometry" />
        </mxCell>
        <mxCell id="LRcjUjVWaLaLbdImSS1h-6" value="Attend" style="shape=rhombus;perimeter=rhombusPerimeter;whiteSpace=wrap;html=1;align=center;" parent="1" vertex="1">
          <mxGeometry x="445" y="300" width="110" height="50" as="geometry" />
        </mxCell>
        <mxCell id="LRcjUjVWaLaLbdImSS1h-22" style="edgeStyle=orthogonalEdgeStyle;rounded=0;orthogonalLoop=1;jettySize=auto;html=1;endArrow=none;endFill=0;" parent="1" source="LRcjUjVWaLaLbdImSS1h-20" target="mi0X13jAqtkiXMaioM2p-5" edge="1">
          <mxGeometry relative="1" as="geometry" />
        </mxCell>
        <mxCell id="Zt6aSx7S08KVgvww_Lt0-11" style="edgeStyle=orthogonalEdgeStyle;rounded=0;orthogonalLoop=1;jettySize=auto;html=1;entryX=0.5;entryY=1;entryDx=0;entryDy=0;endArrow=none;endFill=0;" edge="1" parent="1" source="LRcjUjVWaLaLbdImSS1h-20" target="iY3inTdOyOO_m0dRyVDO-1">
          <mxGeometry relative="1" as="geometry" />
        </mxCell>
        <mxCell id="LRcjUjVWaLaLbdImSS1h-20" value="Makes" style="shape=rhombus;perimeter=rhombusPerimeter;whiteSpace=wrap;html=1;align=center;fillColor=#fff2cc;strokeColor=#d6b656;" parent="1" vertex="1">
          <mxGeometry x="700" y="135" width="110" height="50" as="geometry" />
        </mxCell>
        <mxCell id="LRcjUjVWaLaLbdImSS1h-25" style="edgeStyle=orthogonalEdgeStyle;rounded=0;orthogonalLoop=1;jettySize=auto;html=1;endArrow=none;endFill=0;" parent="1" source="LRcjUjVWaLaLbdImSS1h-23" target="mi0X13jAqtkiXMaioM2p-6" edge="1">
          <mxGeometry relative="1" as="geometry" />
        </mxCell>
        <mxCell id="LRcjUjVWaLaLbdImSS1h-23" value="Have" style="shape=rhombus;perimeter=rhombusPerimeter;whiteSpace=wrap;html=1;align=center;" parent="1" vertex="1">
          <mxGeometry x="1025" y="135" width="110" height="50" as="geometry" />
        </mxCell>
        <mxCell id="LRcjUjVWaLaLbdImSS1h-26" value="Compose" style="shape=rhombus;perimeter=rhombusPerimeter;whiteSpace=wrap;html=1;align=center;" parent="1" vertex="1">
          <mxGeometry x="882.5" y="250" width="95" height="50" as="geometry" />
        </mxCell>
        <mxCell id="AW7PECu1hr5hMuBnd0Gi-1" value="Admin" style="rounded=1;arcSize=10;whiteSpace=wrap;html=1;align=center;" parent="1" vertex="1">
          <mxGeometry x="580" y="335" width="100" height="40" as="geometry" />
        </mxCell>
        <mxCell id="AW7PECu1hr5hMuBnd0Gi-2" style="rounded=0;orthogonalLoop=1;jettySize=auto;html=1;entryX=0.5;entryY=1;entryDx=0;entryDy=0;endArrow=block;endFill=0;" parent="1" source="AW7PECu1hr5hMuBnd0Gi-3" target="AW7PECu1hr5hMuBnd0Gi-7" edge="1">
          <mxGeometry relative="1" as="geometry" />
        </mxCell>
        <mxCell id="AW7PECu1hr5hMuBnd0Gi-3" value="BuyManager" style="rounded=1;arcSize=10;whiteSpace=wrap;html=1;align=center;" parent="1" vertex="1">
          <mxGeometry x="700" y="335" width="100" height="40" as="geometry" />
        </mxCell>
        <mxCell id="AW7PECu1hr5hMuBnd0Gi-4" style="rounded=0;orthogonalLoop=1;jettySize=auto;html=1;entryX=0.927;entryY=0.626;entryDx=0;entryDy=0;endArrow=block;endFill=0;entryPerimeter=0;" parent="1" source="AW7PECu1hr5hMuBnd0Gi-5" target="AW7PECu1hr5hMuBnd0Gi-7" edge="1">
          <mxGeometry relative="1" as="geometry" />
        </mxCell>
        <mxCell id="AW7PECu1hr5hMuBnd0Gi-5" value="SellManager" style="rounded=1;arcSize=10;whiteSpace=wrap;html=1;align=center;" parent="1" vertex="1">
          <mxGeometry x="760" y="280" width="100" height="40" as="geometry" />
        </mxCell>
        <mxCell id="AW7PECu1hr5hMuBnd0Gi-7" value="" style="ellipse;whiteSpace=wrap;html=1;fillColor=#e1d5e7;strokeColor=#9673a6;" parent="1" vertex="1">
          <mxGeometry x="690" y="240" width="30" height="30" as="geometry" />
        </mxCell>
        <mxCell id="AW7PECu1hr5hMuBnd0Gi-8" style="rounded=0;orthogonalLoop=1;jettySize=auto;html=1;entryX=0.094;entryY=0.836;entryDx=0;entryDy=0;entryPerimeter=0;endArrow=block;endFill=0;exitX=0.75;exitY=0;exitDx=0;exitDy=0;" parent="1" source="AW7PECu1hr5hMuBnd0Gi-1" target="AW7PECu1hr5hMuBnd0Gi-7" edge="1">
          <mxGeometry relative="1" as="geometry">
            <mxPoint x="631" y="350.93702257681207" as="sourcePoint" />
          </mxGeometry>
        </mxCell>
        <mxCell id="AW7PECu1hr5hMuBnd0Gi-9" style="rounded=0;orthogonalLoop=1;jettySize=auto;html=1;exitX=1;exitY=0;exitDx=0;exitDy=0;entryX=0;entryY=0.5;entryDx=0;entryDy=0;endArrow=none;endFill=0;fillColor=#e1d5e7;strokeColor=#9673a6;" parent="1" source="AW7PECu1hr5hMuBnd0Gi-10" target="AW7PECu1hr5hMuBnd0Gi-7" edge="1">
          <mxGeometry relative="1" as="geometry" />
        </mxCell>
        <mxCell id="AW7PECu1hr5hMuBnd0Gi-10" value="role" style="ellipse;whiteSpace=wrap;html=1;align=center;fillColor=#e1d5e7;strokeColor=#9673a6;" parent="1" vertex="1">
          <mxGeometry x="585" y="250" width="80" height="30" as="geometry" />
        </mxCell>
        <mxCell id="3wpzLDfqPnHRQBpnoTtt-1" value="&lt;span&gt;dni&lt;/span&gt;" style="ellipse;whiteSpace=wrap;html=1;align=center;fillColor=#dae8fc;strokeColor=#6c8ebf;fontStyle=0" parent="1" vertex="1">
          <mxGeometry x="500" y="90" width="80" height="30" as="geometry" />
        </mxCell>
        <mxCell id="3wpzLDfqPnHRQBpnoTtt-2" value="username" style="ellipse;whiteSpace=wrap;html=1;align=center;fillColor=#dae8fc;strokeColor=#6c8ebf;" parent="1" vertex="1">
          <mxGeometry x="490" y="50" width="90" height="30" as="geometry" />
        </mxCell>
        <mxCell id="3wpzLDfqPnHRQBpnoTtt-3" value="name" style="ellipse;whiteSpace=wrap;html=1;align=center;fillColor=#dae8fc;strokeColor=#6c8ebf;" parent="1" vertex="1">
          <mxGeometry x="590" y="90" width="80" height="30" as="geometry" />
        </mxCell>
        <mxCell id="3wpzLDfqPnHRQBpnoTtt-4" value="surname" style="ellipse;whiteSpace=wrap;html=1;align=center;fillColor=#dae8fc;strokeColor=#6c8ebf;" parent="1" vertex="1">
          <mxGeometry x="590" y="50" width="80" height="30" as="geometry" />
        </mxCell>
        <mxCell id="3wpzLDfqPnHRQBpnoTtt-5" value="email" style="ellipse;whiteSpace=wrap;html=1;align=center;fillColor=#dae8fc;strokeColor=#6c8ebf;" parent="1" vertex="1">
          <mxGeometry x="590" y="10" width="80" height="30" as="geometry" />
        </mxCell>
        <mxCell id="3wpzLDfqPnHRQBpnoTtt-6" value="password" style="ellipse;whiteSpace=wrap;html=1;align=center;fillColor=#dae8fc;strokeColor=#6c8ebf;" parent="1" vertex="1">
          <mxGeometry x="490" y="10" width="90" height="30" as="geometry" />
        </mxCell>
        <mxCell id="3wpzLDfqPnHRQBpnoTtt-7" value="disabled" style="ellipse;whiteSpace=wrap;html=1;align=center;fillColor=#dae8fc;strokeColor=#6c8ebf;" parent="1" vertex="1">
          <mxGeometry x="665" y="30" width="80" height="30" as="geometry" />
        </mxCell>
        <mxCell id="3wpzLDfqPnHRQBpnoTtt-8" value="&lt;span&gt;user_id&lt;/span&gt;" style="ellipse;whiteSpace=wrap;html=1;align=center;fillColor=#dae8fc;strokeColor=#6c8ebf;fontStyle=4" parent="1" vertex="1">
          <mxGeometry x="420" y="30" width="80" height="30" as="geometry" />
        </mxCell>
        <mxCell id="iY3inTdOyOO_m0dRyVDO-1" value="date" style="ellipse;whiteSpace=wrap;html=1;align=center;fillColor=#fff2cc;strokeColor=#d6b656;" parent="1" vertex="1">
          <mxGeometry x="715" y="90" width="80" height="30" as="geometry" />
        </mxCell>
        <mxCell id="iY3inTdOyOO_m0dRyVDO-3" value="disabled" style="ellipse;whiteSpace=wrap;html=1;align=center;fillColor=#d5e8d4;strokeColor=#82b366;" parent="1" vertex="1">
          <mxGeometry x="950" y="70" width="90" height="30" as="geometry" />
        </mxCell>
        <mxCell id="iY3inTdOyOO_m0dRyVDO-4" value="total_price" style="ellipse;whiteSpace=wrap;html=1;align=center;fillColor=#d5e8d4;strokeColor=#003800;dashed=1;strokeWidth=2;" parent="1" vertex="1">
          <mxGeometry x="830" y="105" width="80" height="30" as="geometry" />
        </mxCell>
        <mxCell id="Zt6aSx7S08KVgvww_Lt0-21" style="edgeStyle=orthogonalEdgeStyle;rounded=0;orthogonalLoop=1;jettySize=auto;html=1;endArrow=none;endFill=0;" edge="1" parent="1" source="iY3inTdOyOO_m0dRyVDO-5">
          <mxGeometry relative="1" as="geometry">
            <mxPoint x="735" y="600" as="targetPoint" />
          </mxGeometry>
        </mxCell>
        <mxCell id="iY3inTdOyOO_m0dRyVDO-5" value="Contain" style="shape=rhombus;perimeter=rhombusPerimeter;whiteSpace=wrap;html=1;align=center;fillColor=#94AD8C;strokeColor=#3A5431;fontColor=#ffffff;fontSize=13;" parent="1" vertex="1">
          <mxGeometry x="680" y="530" width="110" height="50" as="geometry" />
        </mxCell>
        <mxCell id="KBlbU4AxI7Ln9HN3tHbm-1" value="name" style="ellipse;whiteSpace=wrap;html=1;align=center;fillColor=#f8cecc;strokeColor=#b85450;" parent="1" vertex="1">
          <mxGeometry x="990" y="330" width="80" height="30" as="geometry" />
        </mxCell>
        <mxCell id="KBlbU4AxI7Ln9HN3tHbm-3" value="&lt;u&gt;client_id&lt;/u&gt;" style="ellipse;whiteSpace=wrap;html=1;align=center;fillColor=#f8cecc;strokeColor=#b85450;" parent="1" vertex="1">
          <mxGeometry x="1089" y="330" width="80" height="30" as="geometry" />
        </mxCell>
        <mxCell id="Y4m_pwRMZkWu5jF2xwX_-1" value="phone" style="ellipse;whiteSpace=wrap;html=1;align=center;fillColor=#f8cecc;strokeColor=#b85450;" parent="1" vertex="1">
          <mxGeometry x="1089" y="370" width="80" height="30" as="geometry" />
        </mxCell>
        <mxCell id="8jgn47QFuoPChB3lV7GP-1" value="disabled" style="ellipse;whiteSpace=wrap;html=1;align=center;fillColor=#f8cecc;strokeColor=#b85450;" parent="1" vertex="1">
          <mxGeometry x="990" y="370" width="80" height="30" as="geometry" />
        </mxCell>
        <mxCell id="8jgn47QFuoPChB3lV7GP-2" value="price" style="ellipse;whiteSpace=wrap;html=1;align=center;fillColor=#94AD8C;strokeColor=#3A5431;fontColor=#ffffff;fontSize=13;" parent="1" vertex="1">
          <mxGeometry x="750" y="585" width="80" height="30" as="geometry" />
        </mxCell>
        <mxCell id="8jgn47QFuoPChB3lV7GP-3" value="amount" style="ellipse;whiteSpace=wrap;html=1;align=center;fillColor=#94AD8C;strokeColor=#3A5431;fontColor=#ffffff;fontSize=13;" parent="1" vertex="1">
          <mxGeometry x="640" y="585" width="80" height="30" as="geometry" />
        </mxCell>
        <mxCell id="8jgn47QFuoPChB3lV7GP-4" value="price_line" style="ellipse;whiteSpace=wrap;html=1;align=center;fillColor=#e1d5e7;strokeColor=#6A5175;dashed=1;strokeWidth=2;" parent="1" vertex="1">
          <mxGeometry x="1000" y="500" width="80" height="30" as="geometry" />
        </mxCell>
        <mxCell id="X7bmjKabfrl8E_HnAhre-1" value="name" style="ellipse;whiteSpace=wrap;html=1;align=center;fillColor=#fad7ac;strokeColor=#b46504;" parent="1" vertex="1">
          <mxGeometry y="440" width="80" height="30" as="geometry" />
        </mxCell>
        <mxCell id="X7bmjKabfrl8E_HnAhre-2" value="&lt;u&gt;product_id&lt;/u&gt;" style="ellipse;whiteSpace=wrap;html=1;align=center;fillColor=#fad7ac;strokeColor=#b46504;" parent="1" vertex="1">
          <mxGeometry x="27.5" y="595" width="80" height="30" as="geometry" />
        </mxCell>
        <mxCell id="X7bmjKabfrl8E_HnAhre-3" value="price" style="ellipse;whiteSpace=wrap;html=1;align=center;fillColor=#fad7ac;strokeColor=#b46504;" parent="1" vertex="1">
          <mxGeometry x="100" y="615" width="80" height="30" as="geometry" />
        </mxCell>
        <mxCell id="X7bmjKabfrl8E_HnAhre-4" value="cost" style="ellipse;whiteSpace=wrap;html=1;align=center;fillColor=#fad7ac;strokeColor=#b46504;" parent="1" vertex="1">
          <mxGeometry x="100" y="655" width="80" height="30" as="geometry" />
        </mxCell>
        <mxCell id="X7bmjKabfrl8E_HnAhre-5" value="unit_limit" style="ellipse;whiteSpace=wrap;html=1;align=center;fillColor=#fad7ac;strokeColor=#b46504;" parent="1" vertex="1">
          <mxGeometry x="107.5" y="700" width="80" height="30" as="geometry" />
        </mxCell>
        <mxCell id="X7bmjKabfrl8E_HnAhre-6" value="disabled" style="ellipse;whiteSpace=wrap;html=1;align=center;fillColor=#fad7ac;strokeColor=#b46504;" parent="1" vertex="1">
          <mxGeometry x="27.5" y="635" width="80" height="30" as="geometry" />
        </mxCell>
        <mxCell id="X7bmjKabfrl8E_HnAhre-7" value="stock" style="ellipse;whiteSpace=wrap;html=1;align=center;fillColor=#fad7ac;strokeColor=#b46504;" parent="1" vertex="1">
          <mxGeometry x="30" y="680" width="80" height="30" as="geometry" />
        </mxCell>
        <mxCell id="X7bmjKabfrl8E_HnAhre-8" value="description" style="ellipse;whiteSpace=wrap;html=1;align=center;fillColor=#fad7ac;strokeColor=#b46504;" parent="1" vertex="1">
          <mxGeometry x="30" y="720" width="80" height="30" as="geometry" />
        </mxCell>
        <mxCell id="PjhPlxILO5rAA0bpH_UG-2" value="message" style="ellipse;whiteSpace=wrap;html=1;align=center;fillColor=#bac8d3;strokeColor=#23445d;" parent="1" vertex="1">
          <mxGeometry x="310" y="455" width="80" height="30" as="geometry" />
        </mxCell>
        <mxCell id="Zt6aSx7S08KVgvww_Lt0-24" style="edgeStyle=orthogonalEdgeStyle;rounded=0;orthogonalLoop=1;jettySize=auto;html=1;endArrow=none;endFill=0;" edge="1" parent="1" source="PjhPlxILO5rAA0bpH_UG-3">
          <mxGeometry relative="1" as="geometry">
            <mxPoint x="560" y="520" as="targetPoint" />
            <Array as="points">
              <mxPoint x="560" y="485" />
              <mxPoint x="560" y="520" />
            </Array>
          </mxGeometry>
        </mxCell>
        <mxCell id="PjhPlxILO5rAA0bpH_UG-3" value="&lt;u&gt;notification_id&lt;/u&gt;" style="ellipse;whiteSpace=wrap;html=1;align=center;fillColor=#b1ddf0;strokeColor=#10739e;" parent="1" vertex="1">
          <mxGeometry x="570" y="470" width="80" height="30" as="geometry" />
        </mxCell>
        <mxCell id="PjhPlxILO5rAA0bpH_UG-4" value="date" style="ellipse;whiteSpace=wrap;html=1;align=center;fillColor=#bac8d3;strokeColor=#23445d;" parent="1" vertex="1">
          <mxGeometry x="220" y="455" width="80" height="30" as="geometry" />
        </mxCell>
        <mxCell id="yJ1lYGdij51M1a6oV_ol-3" value="&lt;span&gt;supplier_id&lt;/span&gt;" style="ellipse;whiteSpace=wrap;html=1;align=center;fillColor=#b0e3e6;strokeColor=#0e8088;fontStyle=4" parent="1" vertex="1">
          <mxGeometry x="120" y="225" width="80" height="30" as="geometry" />
        </mxCell>
        <mxCell id="Zt6aSx7S08KVgvww_Lt0-35" style="edgeStyle=orthogonalEdgeStyle;rounded=0;orthogonalLoop=1;jettySize=auto;html=1;entryX=0.5;entryY=0;entryDx=0;entryDy=0;endArrow=none;endFill=0;" edge="1" parent="1" source="yJ1lYGdij51M1a6oV_ol-4" target="b_wDz366ziYPap3Nds_6-1">
          <mxGeometry relative="1" as="geometry" />
        </mxCell>
        <mxCell id="yJ1lYGdij51M1a6oV_ol-4" value="name" style="ellipse;whiteSpace=wrap;html=1;align=center;fillColor=#b0e3e6;strokeColor=#0e8088;" parent="1" vertex="1">
          <mxGeometry x="170" y="260" width="80" height="30" as="geometry" />
        </mxCell>
        <mxCell id="yJ1lYGdij51M1a6oV_ol-5" value="phone" style="ellipse;whiteSpace=wrap;html=1;align=center;fillColor=#b0e3e6;strokeColor=#0e8088;" parent="1" vertex="1">
          <mxGeometry x="120" y="345" width="80" height="30" as="geometry" />
        </mxCell>
        <mxCell id="b_wDz366ziYPap3Nds_6-1" value="disabled" style="ellipse;whiteSpace=wrap;html=1;align=center;fillColor=#b0e3e6;strokeColor=#0e8088;" parent="1" vertex="1">
          <mxGeometry x="170" y="310" width="80" height="30" as="geometry" />
        </mxCell>
        <mxCell id="b_wDz366ziYPap3Nds_6-2" value="cost" style="ellipse;whiteSpace=wrap;html=1;align=center;fillColor=#fad9d5;strokeColor=#ae4132;" parent="1" vertex="1">
          <mxGeometry x="350" y="365" width="80" height="30" as="geometry" />
        </mxCell>
        <mxCell id="b_wDz366ziYPap3Nds_6-3" value="amount" style="ellipse;whiteSpace=wrap;html=1;align=center;fillColor=#fad9d5;strokeColor=#ae4132;" parent="1" vertex="1">
          <mxGeometry x="350" y="305" width="80" height="30" as="geometry" />
        </mxCell>
        <mxCell id="b_wDz366ziYPap3Nds_6-4" value="date" style="ellipse;whiteSpace=wrap;html=1;align=center;fillColor=#fad7ac;strokeColor=#b46504;" parent="1" vertex="1">
          <mxGeometry x="385" y="80" width="80" height="30" as="geometry" />
        </mxCell>
        <mxCell id="b_wDz366ziYPap3Nds_6-5" value="disabled" style="ellipse;whiteSpace=wrap;html=1;align=center;fillColor=#e1d5e7;strokeColor=#9673a6;" parent="1" vertex="1">
          <mxGeometry x="320" y="100" width="80" height="30" as="geometry" />
        </mxCell>
        <mxCell id="b_wDz366ziYPap3Nds_6-6" value="total_cost" style="ellipse;whiteSpace=wrap;html=1;align=center;fillColor=#e1d5e7;strokeColor=#9673a6;dashed=1;strokeWidth=2;" parent="1" vertex="1">
          <mxGeometry x="180" y="100" width="80" height="30" as="geometry" />
        </mxCell>
        <mxCell id="b_wDz366ziYPap3Nds_6-7" value="(1,n)" style="text;strokeColor=none;align=center;fillColor=none;html=1;verticalAlign=middle;whiteSpace=wrap;rounded=0;" parent="1" vertex="1">
          <mxGeometry x="50" y="470" width="60" height="30" as="geometry" />
        </mxCell>
        <mxCell id="b_wDz366ziYPap3Nds_6-9" value="(1,n)" style="text;strokeColor=none;align=center;fillColor=none;html=1;verticalAlign=middle;whiteSpace=wrap;rounded=0;" parent="1" vertex="1">
          <mxGeometry x="50" y="315" width="60" height="30" as="geometry" />
        </mxCell>
        <mxCell id="b_wDz366ziYPap3Nds_6-10" value="(0,n)" style="text;strokeColor=none;align=center;fillColor=none;html=1;verticalAlign=middle;whiteSpace=wrap;rounded=0;" parent="1" vertex="1">
          <mxGeometry x="50" y="250" width="60" height="30" as="geometry" />
        </mxCell>
        <mxCell id="b_wDz366ziYPap3Nds_6-11" value="(1,1)" style="text;strokeColor=none;align=center;fillColor=none;html=1;verticalAlign=middle;whiteSpace=wrap;rounded=0;" parent="1" vertex="1">
          <mxGeometry x="190" y="135" width="60" height="30" as="geometry" />
        </mxCell>
        <mxCell id="b_wDz366ziYPap3Nds_6-13" value="(0,n)" style="text;strokeColor=none;align=center;fillColor=none;html=1;verticalAlign=middle;whiteSpace=wrap;rounded=0;" parent="1" vertex="1">
          <mxGeometry x="120" y="465" width="60" height="30" as="geometry" />
        </mxCell>
        <mxCell id="b_wDz366ziYPap3Nds_6-14" value="(1,n)" style="text;strokeColor=none;align=center;fillColor=none;html=1;verticalAlign=middle;whiteSpace=wrap;rounded=0;" parent="1" vertex="1">
          <mxGeometry x="240" y="180" width="60" height="30" as="geometry" />
        </mxCell>
        <mxCell id="b_wDz366ziYPap3Nds_6-15" value="(1,1)" style="text;strokeColor=none;align=center;fillColor=none;html=1;verticalAlign=middle;whiteSpace=wrap;rounded=0;" parent="1" vertex="1">
          <mxGeometry x="330" y="135" width="60" height="30" as="geometry" />
        </mxCell>
        <mxCell id="b_wDz366ziYPap3Nds_6-16" value="&lt;span&gt;buy_id&lt;/span&gt;" style="ellipse;whiteSpace=wrap;html=1;align=center;fillColor=#e1d5e7;strokeColor=#9673a6;fontStyle=4" parent="1" vertex="1">
          <mxGeometry x="250" y="70" width="80" height="30" as="geometry" />
        </mxCell>
        <mxCell id="b_wDz366ziYPap3Nds_6-17" value="&lt;span&gt;invoice_id&lt;/span&gt;" style="ellipse;whiteSpace=wrap;html=1;align=center;fillColor=#d5e8d4;strokeColor=#82b366;fontStyle=4" parent="1" vertex="1">
          <mxGeometry x="830" y="70" width="80" height="30" as="geometry" />
        </mxCell>
        <mxCell id="b_wDz366ziYPap3Nds_6-18" value="line_number&lt;div style=&quot;line-height: 0%;&quot;&gt;&lt;b&gt;&lt;font style=&quot;font-size: 15px;&quot;&gt;................&lt;/font&gt;&lt;/b&gt;&lt;/div&gt;" style="ellipse;whiteSpace=wrap;html=1;align=center;fillColor=#e1d5e7;strokeColor=#6A5175;strokeWidth=1;fontStyle=0" parent="1" vertex="1">
          <mxGeometry x="1015" y="450" width="90" height="30" as="geometry" />
        </mxCell>
        <mxCell id="b_wDz366ziYPap3Nds_6-19" value="(0,n)" style="text;strokeColor=none;align=center;fillColor=none;html=1;verticalAlign=middle;whiteSpace=wrap;rounded=0;" parent="1" vertex="1">
          <mxGeometry x="140" y="495" width="60" height="30" as="geometry" />
        </mxCell>
        <mxCell id="b_wDz366ziYPap3Nds_6-20" value="(1,1)" style="text;strokeColor=none;align=center;fillColor=none;html=1;verticalAlign=middle;whiteSpace=wrap;rounded=0;" parent="1" vertex="1">
          <mxGeometry x="400" y="495" width="60" height="30" as="geometry" />
        </mxCell>
        <mxCell id="b_wDz366ziYPap3Nds_6-21" value="(0,n)" style="text;strokeColor=none;align=center;fillColor=none;html=1;verticalAlign=middle;whiteSpace=wrap;rounded=0;" parent="1" vertex="1">
          <mxGeometry x="130" y="530" width="60" height="30" as="geometry" />
        </mxCell>
        <mxCell id="b_wDz366ziYPap3Nds_6-22" value="(1,1)" style="text;strokeColor=none;align=center;fillColor=none;html=1;verticalAlign=middle;whiteSpace=wrap;rounded=0;" parent="1" vertex="1">
          <mxGeometry x="882.5" y="490" width="60" height="30" as="geometry" />
        </mxCell>
        <mxCell id="b_wDz366ziYPap3Nds_6-23" value="(0,n)" style="text;strokeColor=none;align=center;fillColor=none;html=1;verticalAlign=middle;whiteSpace=wrap;rounded=0;" parent="1" vertex="1">
          <mxGeometry x="640" y="135" width="60" height="30" as="geometry" />
        </mxCell>
        <mxCell id="b_wDz366ziYPap3Nds_6-24" value="(1,1)" style="text;strokeColor=none;align=center;fillColor=none;html=1;verticalAlign=middle;whiteSpace=wrap;rounded=0;" parent="1" vertex="1">
          <mxGeometry x="830" y="135" width="60" height="30" as="geometry" />
        </mxCell>
        <mxCell id="b_wDz366ziYPap3Nds_6-26" value="(0,1)" style="text;strokeColor=none;align=center;fillColor=none;html=1;verticalAlign=middle;whiteSpace=wrap;rounded=0;" parent="1" vertex="1">
          <mxGeometry x="970" y="135" width="60" height="30" as="geometry" />
        </mxCell>
        <mxCell id="b_wDz366ziYPap3Nds_6-27" value="(0,n)" style="text;strokeColor=none;align=center;fillColor=none;html=1;verticalAlign=middle;whiteSpace=wrap;rounded=0;" parent="1" vertex="1">
          <mxGeometry x="1030" y="255" width="60" height="30" as="geometry" />
        </mxCell>
        <mxCell id="b_wDz366ziYPap3Nds_6-28" value="(1,n)" style="text;strokeColor=none;align=center;fillColor=none;html=1;verticalAlign=middle;whiteSpace=wrap;rounded=0;" parent="1" vertex="1">
          <mxGeometry x="882.5" y="180" width="60" height="30" as="geometry" />
        </mxCell>
        <mxCell id="b_wDz366ziYPap3Nds_6-29" value="(1,1)" style="text;strokeColor=none;align=center;fillColor=none;html=1;verticalAlign=middle;whiteSpace=wrap;rounded=0;" parent="1" vertex="1">
          <mxGeometry x="882.5" y="414" width="60" height="30" as="geometry" />
        </mxCell>
        <mxCell id="b_wDz366ziYPap3Nds_6-30" value="(0,n)" style="text;strokeColor=none;align=center;fillColor=none;html=1;verticalAlign=middle;whiteSpace=wrap;rounded=0;" parent="1" vertex="1">
          <mxGeometry x="470" y="135" width="60" height="30" as="geometry" />
        </mxCell>
        <mxCell id="b_wDz366ziYPap3Nds_6-31" value="(0,n)" style="text;strokeColor=none;align=center;fillColor=none;html=1;verticalAlign=middle;whiteSpace=wrap;rounded=0;" parent="1" vertex="1">
          <mxGeometry x="540" y="185" width="60" height="30" as="geometry" />
        </mxCell>
        <mxCell id="b_wDz366ziYPap3Nds_6-32" value="(0,1)" style="text;strokeColor=none;align=center;fillColor=none;html=1;verticalAlign=middle;whiteSpace=wrap;rounded=0;" parent="1" vertex="1">
          <mxGeometry x="455" y="470" width="60" height="30" as="geometry" />
        </mxCell>
        <mxCell id="Zt6aSx7S08KVgvww_Lt0-29" style="edgeStyle=orthogonalEdgeStyle;rounded=0;orthogonalLoop=1;jettySize=auto;html=1;endArrow=none;endFill=0;" edge="1" parent="1" source="8btiDHb9CknXPu4yg05l-1" target="8btiDHb9CknXPu4yg05l-3">
          <mxGeometry relative="1" as="geometry" />
        </mxCell>
        <mxCell id="8btiDHb9CknXPu4yg05l-1" value="UnitMeasure" style="rounded=1;arcSize=10;whiteSpace=wrap;html=1;align=center;fillColor=#CDFFA1;strokeColor=#81A165;" parent="1" vertex="1">
          <mxGeometry x="390" y="655" width="100" height="40" as="geometry" />
        </mxCell>
        <mxCell id="8btiDHb9CknXPu4yg05l-2" value="&lt;u&gt;unitmeassure_id&lt;/u&gt;" style="ellipse;whiteSpace=wrap;html=1;align=center;fillColor=#CDFFA1;strokeColor=#9673a6;" parent="1" vertex="1">
          <mxGeometry x="320" y="700" width="110" height="30" as="geometry" />
        </mxCell>
        <mxCell id="8btiDHb9CknXPu4yg05l-3" value="abbreviation" style="ellipse;whiteSpace=wrap;html=1;align=center;fillColor=#CDFFA1;strokeColor=#9673a6;" parent="1" vertex="1">
          <mxGeometry x="515" y="660" width="80" height="30" as="geometry" />
        </mxCell>
        <mxCell id="8btiDHb9CknXPu4yg05l-4" value="full_name" style="ellipse;whiteSpace=wrap;html=1;align=center;fillColor=#CDFFA1;strokeColor=#9673a6;" parent="1" vertex="1">
          <mxGeometry x="470" y="700" width="80" height="30" as="geometry" />
        </mxCell>
        <mxCell id="8btiDHb9CknXPu4yg05l-6" value="(1,1)" style="text;strokeColor=none;align=center;fillColor=none;html=1;verticalAlign=middle;whiteSpace=wrap;rounded=0;" parent="1" vertex="1">
          <mxGeometry x="50" y="545" width="35" height="15" as="geometry" />
        </mxCell>
        <mxCell id="8btiDHb9CknXPu4yg05l-7" value="(0,n)" style="text;strokeColor=none;align=center;fillColor=none;html=1;verticalAlign=middle;whiteSpace=wrap;rounded=0;" parent="1" vertex="1">
          <mxGeometry x="340" y="655" width="60" height="30" as="geometry" />
        </mxCell>
        <mxCell id="8btiDHb9CknXPu4yg05l-10" value="" style="rounded=0;orthogonalLoop=1;jettySize=auto;html=1;entryX=0.913;entryY=1.027;entryDx=0;entryDy=0;entryPerimeter=0;" parent="1" source="AW7PECu1hr5hMuBnd0Gi-7" target="lMafhHqbi1va3fqMS8ZI-1" edge="1">
          <mxGeometry relative="1" as="geometry">
            <mxPoint x="694" y="245" as="sourcePoint" />
            <mxPoint x="659.1500000000001" y="210.55999999999995" as="targetPoint" />
          </mxGeometry>
        </mxCell>
        <mxCell id="8btiDHb9CknXPu4yg05l-11" value="Quantify" style="shape=rhombus;perimeter=rhombusPerimeter;whiteSpace=wrap;html=1;align=center;" parent="1" vertex="1">
          <mxGeometry x="220" y="655" width="110" height="50" as="geometry" />
        </mxCell>
        <mxCell id="WM1Vbw-XqRlaF_h8ldgn-6" value="invoice_code" style="ellipse;whiteSpace=wrap;html=1;align=center;fillColor=#d5e8d4;strokeColor=#003800;dashed=1;strokeWidth=2;" parent="1" vertex="1">
          <mxGeometry x="950" y="105" width="90" height="30" as="geometry" />
        </mxCell>
        <mxCell id="WM1Vbw-XqRlaF_h8ldgn-20" value="read" style="ellipse;whiteSpace=wrap;html=1;align=center;fillColor=#b1ddf0;strokeColor=#10739e;dashed=1;strokeWidth=2;" parent="1" vertex="1">
          <mxGeometry x="572.5" y="505" width="75" height="30" as="geometry" />
        </mxCell>
        <mxCell id="Zt6aSx7S08KVgvww_Lt0-27" style="edgeStyle=orthogonalEdgeStyle;rounded=0;orthogonalLoop=1;jettySize=auto;html=1;entryX=0;entryY=0.5;entryDx=0;entryDy=0;endArrow=none;endFill=0;" edge="1" parent="1" source="heLIXJHee3ft3tF2MQ97-1" target="heLIXJHee3ft3tF2MQ97-2">
          <mxGeometry relative="1" as="geometry">
            <Array as="points">
              <mxPoint x="500" y="610" />
              <mxPoint x="500" y="585" />
            </Array>
          </mxGeometry>
        </mxCell>
        <mxCell id="heLIXJHee3ft3tF2MQ97-1" value="ProductCategory" style="rounded=1;arcSize=10;whiteSpace=wrap;html=1;align=center;fillColor=#e1d5e7;strokeColor=#9673a6;" parent="1" vertex="1">
          <mxGeometry x="390" y="590" width="100" height="40" as="geometry" />
        </mxCell>
        <mxCell id="heLIXJHee3ft3tF2MQ97-2" value="&lt;u&gt;category_id&lt;/u&gt;" style="ellipse;whiteSpace=wrap;html=1;align=center;fillColor=#e1d5e7;strokeColor=#9673a6;" parent="1" vertex="1">
          <mxGeometry x="505" y="570" width="80" height="30" as="geometry" />
        </mxCell>
        <mxCell id="Zt6aSx7S08KVgvww_Lt0-28" style="edgeStyle=orthogonalEdgeStyle;rounded=0;orthogonalLoop=1;jettySize=auto;html=1;endArrow=none;endFill=0;" edge="1" parent="1" source="heLIXJHee3ft3tF2MQ97-3">
          <mxGeometry relative="1" as="geometry">
            <mxPoint x="500" y="610" as="targetPoint" />
            <Array as="points">
              <mxPoint x="500" y="625" />
            </Array>
          </mxGeometry>
        </mxCell>
        <mxCell id="heLIXJHee3ft3tF2MQ97-3" value="category_name" style="ellipse;whiteSpace=wrap;html=1;align=center;fillColor=#e1d5e7;strokeColor=#9673a6;" parent="1" vertex="1">
          <mxGeometry x="505" y="610" width="100" height="30" as="geometry" />
        </mxCell>
        <mxCell id="heLIXJHee3ft3tF2MQ97-7" style="edgeStyle=orthogonalEdgeStyle;rounded=0;orthogonalLoop=1;jettySize=auto;html=1;entryX=0;entryY=0.5;entryDx=0;entryDy=0;endArrow=none;endFill=0;" parent="1" source="heLIXJHee3ft3tF2MQ97-4" target="heLIXJHee3ft3tF2MQ97-1" edge="1">
          <mxGeometry relative="1" as="geometry" />
        </mxCell>
        <mxCell id="heLIXJHee3ft3tF2MQ97-4" value="Classify" style="shape=rhombus;perimeter=rhombusPerimeter;whiteSpace=wrap;html=1;align=center;" parent="1" vertex="1">
          <mxGeometry x="250" y="585" width="110" height="50" as="geometry" />
        </mxCell>
        <mxCell id="heLIXJHee3ft3tF2MQ97-6" style="edgeStyle=orthogonalEdgeStyle;rounded=0;orthogonalLoop=1;jettySize=auto;html=1;entryX=0.45;entryY=1.015;entryDx=0;entryDy=0;entryPerimeter=0;endArrow=none;endFill=0;exitX=0;exitY=0.5;exitDx=0;exitDy=0;" parent="1" source="heLIXJHee3ft3tF2MQ97-4" target="mi0X13jAqtkiXMaioM2p-3" edge="1">
          <mxGeometry relative="1" as="geometry">
            <Array as="points">
              <mxPoint x="250" y="570" />
              <mxPoint x="95" y="570" />
            </Array>
          </mxGeometry>
        </mxCell>
        <mxCell id="heLIXJHee3ft3tF2MQ97-8" value="(1,1)" style="text;strokeColor=none;align=center;fillColor=none;html=1;verticalAlign=middle;whiteSpace=wrap;rounded=0;" parent="1" vertex="1">
          <mxGeometry x="95" y="550" width="60" height="30" as="geometry" />
        </mxCell>
        <mxCell id="heLIXJHee3ft3tF2MQ97-9" value="(0,n)" style="text;strokeColor=none;align=center;fillColor=none;html=1;verticalAlign=middle;whiteSpace=wrap;rounded=0;" parent="1" vertex="1">
          <mxGeometry x="345" y="585" width="60" height="30" as="geometry" />
        </mxCell>
        <mxCell id="Zt6aSx7S08KVgvww_Lt0-2" value="" style="endArrow=none;html=1;rounded=0;exitX=1;exitY=0.5;exitDx=0;exitDy=0;entryX=0;entryY=0.5;entryDx=0;entryDy=0;" edge="1" parent="1" source="3wpzLDfqPnHRQBpnoTtt-1" target="3wpzLDfqPnHRQBpnoTtt-3">
          <mxGeometry width="50" height="50" relative="1" as="geometry">
            <mxPoint x="535" y="155" as="sourcePoint" />
            <mxPoint x="585" y="105" as="targetPoint" />
          </mxGeometry>
        </mxCell>
        <mxCell id="Zt6aSx7S08KVgvww_Lt0-4" value="" style="endArrow=none;html=1;rounded=0;" edge="1" parent="1">
          <mxGeometry width="50" height="50" relative="1" as="geometry">
            <mxPoint x="585" y="30" as="sourcePoint" />
            <mxPoint x="585" y="30" as="targetPoint" />
          </mxGeometry>
        </mxCell>
        <mxCell id="Zt6aSx7S08KVgvww_Lt0-5" value="" style="endArrow=none;html=1;rounded=0;exitX=1;exitY=0.5;exitDx=0;exitDy=0;entryX=0;entryY=0.5;entryDx=0;entryDy=0;" edge="1" parent="1">
          <mxGeometry width="50" height="50" relative="1" as="geometry">
            <mxPoint x="580" y="64.94" as="sourcePoint" />
            <mxPoint x="590" y="64.94" as="targetPoint" />
          </mxGeometry>
        </mxCell>
        <mxCell id="Zt6aSx7S08KVgvww_Lt0-6" value="" style="endArrow=none;html=1;rounded=0;exitX=1;exitY=0.5;exitDx=0;exitDy=0;entryX=0;entryY=0.5;entryDx=0;entryDy=0;" edge="1" parent="1" source="3wpzLDfqPnHRQBpnoTtt-8" target="3wpzLDfqPnHRQBpnoTtt-7">
          <mxGeometry width="50" height="50" relative="1" as="geometry">
            <mxPoint x="580" y="44.94" as="sourcePoint" />
            <mxPoint x="590" y="44.94" as="targetPoint" />
          </mxGeometry>
        </mxCell>
        <mxCell id="Zt6aSx7S08KVgvww_Lt0-7" value="" style="endArrow=none;html=1;rounded=0;exitX=0.974;exitY=0.328;exitDx=0;exitDy=0;entryX=0.022;entryY=0.336;entryDx=0;entryDy=0;entryPerimeter=0;exitPerimeter=0;" edge="1" parent="1" source="3wpzLDfqPnHRQBpnoTtt-6" target="3wpzLDfqPnHRQBpnoTtt-5">
          <mxGeometry width="50" height="50" relative="1" as="geometry">
            <mxPoint x="580" y="20" as="sourcePoint" />
            <mxPoint x="590" y="20" as="targetPoint" />
          </mxGeometry>
        </mxCell>
        <mxCell id="Zt6aSx7S08KVgvww_Lt0-13" value="" style="endArrow=none;html=1;rounded=0;entryX=0.028;entryY=0.326;entryDx=0;entryDy=0;entryPerimeter=0;exitX=0.971;exitY=0.326;exitDx=0;exitDy=0;exitPerimeter=0;" edge="1" parent="1" source="b_wDz366ziYPap3Nds_6-17" target="iY3inTdOyOO_m0dRyVDO-3">
          <mxGeometry width="50" height="50" relative="1" as="geometry">
            <mxPoint x="910" y="80" as="sourcePoint" />
            <mxPoint x="950" y="80.01000000000002" as="targetPoint" />
          </mxGeometry>
        </mxCell>
        <mxCell id="Zt6aSx7S08KVgvww_Lt0-14" value="" style="endArrow=none;html=1;rounded=0;" edge="1" parent="1">
          <mxGeometry width="50" height="50" relative="1" as="geometry">
            <mxPoint x="910" y="120" as="sourcePoint" />
            <mxPoint x="950" y="120" as="targetPoint" />
          </mxGeometry>
        </mxCell>
        <mxCell id="Zt6aSx7S08KVgvww_Lt0-16" value="" style="endArrow=none;html=1;rounded=0;exitX=0.995;exitY=0.616;exitDx=0;exitDy=0;exitPerimeter=0;entryX=0.004;entryY=0.616;entryDx=0;entryDy=0;entryPerimeter=0;" edge="1" parent="1" source="8jgn47QFuoPChB3lV7GP-1" target="Y4m_pwRMZkWu5jF2xwX_-1">
          <mxGeometry width="50" height="50" relative="1" as="geometry">
            <mxPoint x="1067.5" y="388.5" as="sourcePoint" />
            <mxPoint x="1092.5" y="388.5" as="targetPoint" />
          </mxGeometry>
        </mxCell>
        <mxCell id="Zt6aSx7S08KVgvww_Lt0-17" value="" style="endArrow=none;html=1;rounded=0;exitX=1;exitY=0.5;exitDx=0;exitDy=0;entryX=0;entryY=0.5;entryDx=0;entryDy=0;" edge="1" parent="1" source="KBlbU4AxI7Ln9HN3tHbm-1" target="KBlbU4AxI7Ln9HN3tHbm-3">
          <mxGeometry width="50" height="50" relative="1" as="geometry">
            <mxPoint x="1071" y="344.67" as="sourcePoint" />
            <mxPoint x="1090" y="344.67" as="targetPoint" />
          </mxGeometry>
        </mxCell>
        <mxCell id="Zt6aSx7S08KVgvww_Lt0-20" value="" style="endArrow=none;html=1;rounded=0;entryX=0.082;entryY=0.239;entryDx=0;entryDy=0;entryPerimeter=0;exitX=0.991;exitY=0.971;exitDx=0;exitDy=0;exitPerimeter=0;" edge="1" parent="1" source="mi0X13jAqtkiXMaioM2p-9" target="8jgn47QFuoPChB3lV7GP-4">
          <mxGeometry width="50" height="50" relative="1" as="geometry">
            <mxPoint x="990" y="490" as="sourcePoint" />
            <mxPoint x="1060" y="450" as="targetPoint" />
          </mxGeometry>
        </mxCell>
        <mxCell id="Zt6aSx7S08KVgvww_Lt0-22" value="" style="endArrow=none;html=1;rounded=0;exitX=1;exitY=0.5;exitDx=0;exitDy=0;entryX=0;entryY=0.5;entryDx=0;entryDy=0;" edge="1" parent="1" source="8jgn47QFuoPChB3lV7GP-3" target="8jgn47QFuoPChB3lV7GP-2">
          <mxGeometry width="50" height="50" relative="1" as="geometry">
            <mxPoint x="710" y="580" as="sourcePoint" />
            <mxPoint x="760" y="530" as="targetPoint" />
          </mxGeometry>
        </mxCell>
        <mxCell id="Zt6aSx7S08KVgvww_Lt0-23" style="edgeStyle=orthogonalEdgeStyle;rounded=0;orthogonalLoop=1;jettySize=auto;html=1;entryX=-0.009;entryY=0.496;entryDx=0;entryDy=0;entryPerimeter=0;endArrow=none;endFill=0;" edge="1" parent="1" source="mi0X13jAqtkiXMaioM2p-4" target="WM1Vbw-XqRlaF_h8ldgn-20">
          <mxGeometry relative="1" as="geometry" />
        </mxCell>
        <mxCell id="Zt6aSx7S08KVgvww_Lt0-26" value="" style="endArrow=none;html=1;rounded=0;exitX=1;exitY=0.5;exitDx=0;exitDy=0;" edge="1" parent="1" source="PjhPlxILO5rAA0bpH_UG-4">
          <mxGeometry width="50" height="50" relative="1" as="geometry">
            <mxPoint x="290" y="520" as="sourcePoint" />
            <mxPoint x="310" y="470" as="targetPoint" />
          </mxGeometry>
        </mxCell>
        <mxCell id="Zt6aSx7S08KVgvww_Lt0-30" value="" style="endArrow=none;html=1;rounded=0;exitX=0.65;exitY=0.036;exitDx=0;exitDy=0;exitPerimeter=0;entryX=0.25;entryY=1;entryDx=0;entryDy=0;" edge="1" parent="1" source="8btiDHb9CknXPu4yg05l-2" target="8btiDHb9CknXPu4yg05l-1">
          <mxGeometry width="50" height="50" relative="1" as="geometry">
            <mxPoint x="440" y="770" as="sourcePoint" />
            <mxPoint x="490" y="720" as="targetPoint" />
          </mxGeometry>
        </mxCell>
        <mxCell id="Zt6aSx7S08KVgvww_Lt0-31" value="" style="endArrow=none;html=1;rounded=0;exitX=0.686;exitY=1.003;exitDx=0;exitDy=0;exitPerimeter=0;" edge="1" parent="1" source="8btiDHb9CknXPu4yg05l-1" target="8btiDHb9CknXPu4yg05l-4">
          <mxGeometry width="50" height="50" relative="1" as="geometry">
            <mxPoint x="420" y="730" as="sourcePoint" />
            <mxPoint x="470" y="680" as="targetPoint" />
          </mxGeometry>
        </mxCell>
        <mxCell id="Zt6aSx7S08KVgvww_Lt0-33" value="" style="endArrow=none;html=1;rounded=0;exitX=0.5;exitY=1;exitDx=0;exitDy=0;entryX=0.5;entryY=0;entryDx=0;entryDy=0;" edge="1" parent="1" source="b_wDz366ziYPap3Nds_6-3" target="b_wDz366ziYPap3Nds_6-2">
          <mxGeometry width="50" height="50" relative="1" as="geometry">
            <mxPoint x="390" y="360" as="sourcePoint" />
            <mxPoint x="440" y="310" as="targetPoint" />
          </mxGeometry>
        </mxCell>
        <mxCell id="Zt6aSx7S08KVgvww_Lt0-36" value="" style="endArrow=none;html=1;rounded=0;exitX=0.5;exitY=0;exitDx=0;exitDy=0;entryX=0.5;entryY=1;entryDx=0;entryDy=0;" edge="1" parent="1">
          <mxGeometry width="50" height="50" relative="1" as="geometry">
            <mxPoint x="159.83" y="345" as="sourcePoint" />
            <mxPoint x="159.83" y="255" as="targetPoint" />
          </mxGeometry>
        </mxCell>
        <mxCell id="Zt6aSx7S08KVgvww_Lt0-38" value="" style="endArrow=none;html=1;rounded=0;exitX=0.313;exitY=1.039;exitDx=0;exitDy=0;exitPerimeter=0;" edge="1" parent="1">
          <mxGeometry width="50" height="50" relative="1" as="geometry">
            <mxPoint x="20.00000000000002" y="470.3300000000001" as="sourcePoint" />
            <mxPoint x="20" y="740" as="targetPoint" />
          </mxGeometry>
        </mxCell>
        <mxCell id="Zt6aSx7S08KVgvww_Lt0-39" value="" style="endArrow=none;html=1;rounded=0;entryX=0;entryY=0.5;entryDx=0;entryDy=0;" edge="1" parent="1" target="X7bmjKabfrl8E_HnAhre-2">
          <mxGeometry width="50" height="50" relative="1" as="geometry">
            <mxPoint x="20" y="610" as="sourcePoint" />
            <mxPoint x="90" y="600" as="targetPoint" />
          </mxGeometry>
        </mxCell>
        <mxCell id="Zt6aSx7S08KVgvww_Lt0-40" value="" style="endArrow=none;html=1;rounded=0;entryX=0;entryY=0.5;entryDx=0;entryDy=0;" edge="1" parent="1" target="X7bmjKabfrl8E_HnAhre-3">
          <mxGeometry width="50" height="50" relative="1" as="geometry">
            <mxPoint x="20.5" y="629.91" as="sourcePoint" />
            <mxPoint x="27.5" y="629.91" as="targetPoint" />
            <Array as="points">
              <mxPoint x="20.5" y="629.91" />
            </Array>
          </mxGeometry>
        </mxCell>
        <mxCell id="Zt6aSx7S08KVgvww_Lt0-41" value="" style="endArrow=none;html=1;rounded=0;entryX=0;entryY=0.5;entryDx=0;entryDy=0;" edge="1" parent="1">
          <mxGeometry width="50" height="50" relative="1" as="geometry">
            <mxPoint x="20.5" y="649.93" as="sourcePoint" />
            <mxPoint x="27.5" y="649.93" as="targetPoint" />
          </mxGeometry>
        </mxCell>
        <mxCell id="Zt6aSx7S08KVgvww_Lt0-42" value="" style="endArrow=none;html=1;rounded=0;entryX=0;entryY=0.5;entryDx=0;entryDy=0;" edge="1" parent="1" target="X7bmjKabfrl8E_HnAhre-4">
          <mxGeometry width="50" height="50" relative="1" as="geometry">
            <mxPoint x="20.5" y="669.93" as="sourcePoint" />
            <mxPoint x="27.5" y="669.93" as="targetPoint" />
          </mxGeometry>
        </mxCell>
        <mxCell id="Zt6aSx7S08KVgvww_Lt0-43" value="" style="endArrow=none;html=1;rounded=0;entryX=0;entryY=0.5;entryDx=0;entryDy=0;" edge="1" parent="1" target="X7bmjKabfrl8E_HnAhre-7">
          <mxGeometry width="50" height="50" relative="1" as="geometry">
            <mxPoint x="20.5" y="695" as="sourcePoint" />
            <mxPoint x="27.5" y="695" as="targetPoint" />
          </mxGeometry>
        </mxCell>
        <mxCell id="Zt6aSx7S08KVgvww_Lt0-44" value="" style="endArrow=none;html=1;rounded=0;entryX=0;entryY=0.5;entryDx=0;entryDy=0;" edge="1" parent="1" target="X7bmjKabfrl8E_HnAhre-5">
          <mxGeometry width="50" height="50" relative="1" as="geometry">
            <mxPoint x="20.5" y="714.93" as="sourcePoint" />
            <mxPoint x="27.5" y="714.93" as="targetPoint" />
          </mxGeometry>
        </mxCell>
        <mxCell id="Zt6aSx7S08KVgvww_Lt0-45" value="" style="endArrow=none;html=1;rounded=0;entryX=0.032;entryY=0.661;entryDx=0;entryDy=0;entryPerimeter=0;" edge="1" parent="1" target="X7bmjKabfrl8E_HnAhre-8">
          <mxGeometry width="50" height="50" relative="1" as="geometry">
            <mxPoint x="20" y="740" as="sourcePoint" />
            <mxPoint x="27.5" y="740" as="targetPoint" />
          </mxGeometry>
        </mxCell>
        <mxCell id="Zt6aSx7S08KVgvww_Lt0-46" value="" style="endArrow=none;html=1;rounded=0;exitX=0.5;exitY=0;exitDx=0;exitDy=0;entryX=0.5;entryY=1;entryDx=0;entryDy=0;" edge="1" parent="1" source="mi0X13jAqtkiXMaioM2p-1" target="b_wDz366ziYPap3Nds_6-16">
          <mxGeometry width="50" height="50" relative="1" as="geometry">
            <mxPoint x="320" y="230" as="sourcePoint" />
            <mxPoint x="370" y="180" as="targetPoint" />
          </mxGeometry>
        </mxCell>
        <mxCell id="Zt6aSx7S08KVgvww_Lt0-47" value="" style="endArrow=none;html=1;rounded=0;exitX=1;exitY=1;exitDx=0;exitDy=0;entryX=0.25;entryY=0;entryDx=0;entryDy=0;" edge="1" parent="1" source="b_wDz366ziYPap3Nds_6-6" target="mi0X13jAqtkiXMaioM2p-1">
          <mxGeometry width="50" height="50" relative="1" as="geometry">
            <mxPoint x="320" y="230" as="sourcePoint" />
            <mxPoint x="370" y="180" as="targetPoint" />
          </mxGeometry>
        </mxCell>
        <mxCell id="Zt6aSx7S08KVgvww_Lt0-48" value="" style="endArrow=none;html=1;rounded=0;entryX=0;entryY=1;entryDx=0;entryDy=0;exitX=0.75;exitY=0;exitDx=0;exitDy=0;" edge="1" parent="1" source="mi0X13jAqtkiXMaioM2p-1" target="b_wDz366ziYPap3Nds_6-5">
          <mxGeometry width="50" height="50" relative="1" as="geometry">
            <mxPoint x="320" y="230" as="sourcePoint" />
            <mxPoint x="370" y="180" as="targetPoint" />
          </mxGeometry>
        </mxCell>
      </root>
    </mxGraphModel>
  </diagram>
</mxfile>
